grf.mot
version=1
nRows=22
nColumns=31
inDegrees=yes
endheader
time	ground_force_vx	ground_force_vy	ground_force_vz	ground_force_px	ground_force_py	ground_force_pz	1_ground_force_vx	1_ground_force_vy	1_ground_force_vz	1_ground_force_px	1_ground_force_py	1_ground_force_pz	ground_torque_x	ground_torque_y	ground_torque_z	1_ground_torque_x	1_ground_torque_y	1_ground_torque_z	apo_force_vx	apo_force_vy	apo_force_vz	apo_force_px	apo_force_py	apo_force_pz	1_apo_force_vx	1_apo_force_vy	1_apo_force_vz	1_apo_force_px	1_apo_force_py	1_apo_force_pz	
2.48054000000000	0.00000000000000	0.00000000000000	0.00000000000000	0.00000000000000	0.00000000000000	0.00000000000000	-11.44960000000000	610.08199999999999	48.31330000000000	-0.00350264000000	0.00000000000000	-0.13431400000000	0.00000000000000	0.00000000000000	0.00000000000000	0.00000000000000	4.85440000000000	0.00000000000000	-3.60940000000000	-1.69500000000000	0.00000000000000	0.00000000000000	-0.35000000000000	0.00000000000000	3.81570000000000	1.22020000000000	0.00000000000000	0.00000000000000	-0.35000000000000	0.00000000000000	
2.48554000000000	0.00000000000000	0.00000000000000	0.00000000000000	0.00000000000000	0.00000000000000	0.00000000000000	-9.46378000000000	604.28999999999996	47.02830000000000	-0.00858669000000	0.00000000000000	-0.13392500000000	0.00000000000000	0.00000000000000	0.00000000000000	0.00000000000000	4.76749000000000	0.00000000000000	-3.21700000000000	-1.55650000000000	0.00000000000000	0.00000000000000	-0.35000000000000	0.00000000000000	3.44220000000000	1.05600000000000	0.00000000000000	0.00000000000000	-0.35000000000000	0.00000000000000	
2.49054000000000	0.00000000000000	0.00000000000000	0.00000000000000	0.00000000000000	0.00000000000000	0.00000000000000	-7.54239000000000	599.61599999999999	45.76900000000000	-0.01381730000000	0.00000000000000	-0.13356100000000	0.00000000000000	0.00000000000000	0.00000000000000	0.00000000000000	4.68029000000000	0.00000000000000	-2.84550000000000	-1.41610000000000	0.00000000000000	0.00000000000000	-0.35000000000000	0.00000000000000	3.08270000000000	0.90577000000000	0.00000000000000	0.00000000000000	-0.35000000000000	0.00000000000000	
2.49554000000000	0.00000000000000	0.00000000000000	0.00000000000000	0.00000000000000	0.00000000000000	0.00000000000000	-5.66093000000000	595.99699999999996	44.53630000000000	-0.01920890000000	0.00000000000000	-0.13323800000000	0.00000000000000	0.00000000000000	0.00000000000000	0.00000000000000	4.59133000000000	0.00000000000000	-2.50140000000000	-1.27830000000000	0.00000000000000	0.00000000000000	-0.35000000000000	0.00000000000000	2.74410000000000	0.77088000000000	0.00000000000000	0.00000000000000	-0.35000000000000	0.00000000000000	
2.50054000000000	0.00000000000000	0.00000000000000	0.00000000000000	0.00000000000000	0.00000000000000	0.00000000000000	-3.79973000000000	593.35900000000004	43.33200000000000	-0.02477120000000	0.00000000000000	-0.13297100000000	0.00000000000000	0.00000000000000	0.00000000000000	0.00000000000000	4.49933000000000	0.00000000000000	-2.18850000000000	-1.14670000000000	0.00000000000000	0.00000000000000	-0.35000000000000	0.00000000000000	2.43100000000000	0.65172000000000	0.00000000000000	0.00000000000000	-0.35000000000000	0.00000000000000	
2.50554000000000	0.00000000000000	0.00000000000000	0.00000000000000	0.00000000000000	0.00000000000000	0.00000000000000	-1.94399000000000	591.62099999999998	42.15910000000000	-0.03050780000000	0.00000000000000	-0.13277000000000	0.00000000000000	0.00000000000000	0.00000000000000	0.00000000000000	4.40320000000000	0.00000000000000	-1.90900000000000	-1.02400000000000	0.00000000000000	0.00000000000000	-0.35000000000000	0.00000000000000	2.14610000000000	0.54792000000000	0.00000000000000	0.00000000000000	-0.35000000000000	0.00000000000000	
2.51054000000000	0.00000000000000	0.00000000000000	0.00000000000000	0.00000000000000	0.00000000000000	0.00000000000000	-0.08350570000000	590.69600000000003	41.02230000000000	-0.03641660000000	0.00000000000000	-0.13264500000000	0.00000000000000	0.00000000000000	0.00000000000000	0.00000000000000	4.30205000000000	0.00000000000000	-1.66350000000000	-0.91220000000000	0.00000000000000	0.00000000000000	-0.35000000000000	0.00000000000000	1.89050000000000	0.45865000000000	0.00000000000000	0.00000000000000	-0.35000000000000	0.00000000000000	
2.51554000000000	0.00000000000000	0.00000000000000	0.00000000000000	0.00000000000000	0.00000000000000	0.00000000000000	1.78769000000000	590.50000000000000	39.92740000000000	-0.04248920000000	0.00000000000000	-0.13260300000000	0.00000000000000	0.00000000000000	0.00000000000000	0.00000000000000	4.19525000000000	0.00000000000000	-1.45450000000000	-0.81415000000000	0.00000000000000	0.00000000000000	-0.35000000000000	0.00000000000000	1.66760000000000	0.38348000000000	0.00000000000000	0.00000000000000	-0.35000000000000	0.00000000000000	
2.52054000000000	0.00000000000000	0.00000000000000	0.00000000000000	0.00000000000000	0.00000000000000	0.00000000000000	3.67194000000000	590.95000000000005	38.88230000000000	-0.04871090000000	0.00000000000000	-0.13264400000000	0.00000000000000	0.00000000000000	0.00000000000000	0.00000000000000	4.08239000000000	0.00000000000000	-1.27640000000000	-0.72828000000000	0.00000000000000	0.00000000000000	-0.35000000000000	0.00000000000000	1.47220000000000	0.32004000000000	0.00000000000000	0.00000000000000	-0.35000000000000	0.00000000000000	
2.52554000000000	0.00000000000000	0.00000000000000	0.00000000000000	0.00000000000000	0.00000000000000	0.00000000000000	5.56874000000000	591.97199999999998	37.89620000000000	-0.05506100000000	0.00000000000000	-0.13277000000000	0.00000000000000	0.00000000000000	0.00000000000000	0.00000000000000	3.96330000000000	0.00000000000000	-1.12340000000000	-0.65249000000000	0.00000000000000	0.00000000000000	-0.35000000000000	0.00000000000000	1.29860000000000	0.26606000000000	0.00000000000000	0.00000000000000	-0.35000000000000	0.00000000000000	
2.53054000000000	0.00000000000000	0.00000000000000	0.00000000000000	0.00000000000000	0.00000000000000	0.00000000000000	7.47556000000000	593.49900000000002	36.98010000000000	-0.06151300000000	0.00000000000000	-0.13297700000000	0.00000000000000	0.00000000000000	0.00000000000000	0.00000000000000	3.83803000000000	0.00000000000000	-0.99399000000000	-0.58692000000000	0.00000000000000	0.00000000000000	-0.35000000000000	0.00000000000000	1.14610000000000	0.22056000000000	0.00000000000000	0.00000000000000	-0.35000000000000	0.00000000000000	
2.53554000000000	0.00000000000000	0.00000000000000	0.00000000000000	0.00000000000000	0.00000000000000	0.00000000000000	9.38886000000000	595.48099999999999	36.14630000000000	-0.06803540000000	0.00000000000000	-0.13325900000000	0.00000000000000	0.00000000000000	0.00000000000000	0.00000000000000	3.70686000000000	0.00000000000000	-0.88337000000000	-0.52957000000000	0.00000000000000	0.00000000000000	-0.35000000000000	0.00000000000000	1.01020000000000	0.18189000000000	0.00000000000000	0.00000000000000	-0.35000000000000	0.00000000000000	
2.54054000000000	0.00000000000000	0.00000000000000	0.00000000000000	0.00000000000000	0.00000000000000	0.00000000000000	11.30500000000000	597.88099999999997	35.40840000000000	-0.07459250000000	0.00000000000000	-0.13360600000000	0.00000000000000	0.00000000000000	0.00000000000000	0.00000000000000	3.57024000000000	0.00000000000000	-0.78636000000000	-0.47801000000000	0.00000000000000	0.00000000000000	-0.35000000000000	0.00000000000000	0.88577000000000	0.14857000000000	0.00000000000000	0.00000000000000	-0.35000000000000	0.00000000000000	
2.54554000000000	0.00000000000000	0.00000000000000	0.00000000000000	0.00000000000000	0.00000000000000	0.00000000000000	13.22130000000000	600.67800000000000	34.78080000000000	-0.08114530000000	0.00000000000000	-0.13400800000000	0.00000000000000	0.00000000000000	0.00000000000000	0.00000000000000	3.42881000000000	0.00000000000000	-0.69775000000000	-0.42956000000000	0.00000000000000	0.00000000000000	-0.35000000000000	0.00000000000000	0.76805000000000	0.11939000000000	0.00000000000000	0.00000000000000	-0.35000000000000	0.00000000000000	
2.55054000000000	0.00000000000000	0.00000000000000	0.00000000000000	0.00000000000000	0.00000000000000	0.00000000000000	15.13670000000000	603.87300000000005	34.27870000000000	-0.08765250000000	0.00000000000000	-0.13445000000000	0.00000000000000	0.00000000000000	0.00000000000000	0.00000000000000	3.28335000000000	0.00000000000000	-0.61251000000000	-0.38144000000000	0.00000000000000	0.00000000000000	-0.35000000000000	0.00000000000000	0.65233000000000	0.09341700000000	0.00000000000000	0.00000000000000	-0.35000000000000	0.00000000000000	
2.55554000000000	0.00000000000000	0.00000000000000	0.00000000000000	0.00000000000000	0.00000000000000	0.00000000000000	17.05310000000000	607.48000000000002	33.91720000000000	-0.09407230000000	0.00000000000000	-0.13491900000000	0.00000000000000	0.00000000000000	0.00000000000000	0.00000000000000	3.13476000000000	0.00000000000000	-0.52600000000000	-0.33098000000000	0.00000000000000	0.00000000000000	-0.35000000000000	0.00000000000000	0.53434000000000	0.06999200000000	0.00000000000000	0.00000000000000	-0.35000000000000	0.00000000000000	
2.56054000000000	0.00000000000000	0.00000000000000	0.00000000000000	0.00000000000000	0.00000000000000	0.00000000000000	18.97550000000000	611.53599999999994	33.71120000000000	-0.10036300000000	0.00000000000000	-0.13539800000000	0.00000000000000	0.00000000000000	0.00000000000000	0.00000000000000	2.98402000000000	0.00000000000000	-0.43415000000000	-0.27573000000000	0.00000000000000	0.00000000000000	-0.35000000000000	0.00000000000000	0.41034000000000	0.04874100000000	0.00000000000000	0.00000000000000	-0.35000000000000	0.00000000000000	
2.56554000000000	0.00000000000000	0.00000000000000	0.00000000000000	0.00000000000000	0.00000000000000	0.00000000000000	20.91280000000000	616.09199999999998	33.67490000000000	-0.10648600000000	0.00000000000000	-0.13587100000000	0.00000000000000	0.00000000000000	0.00000000000000	0.00000000000000	2.83216000000000	0.00000000000000	-0.33347000000000	-0.21354000000000	0.00000000000000	0.00000000000000	-0.35000000000000	0.00000000000000	0.27716000000000	0.02953900000000	0.00000000000000	0.00000000000000	-0.35000000000000	0.00000000000000	
2.57054000000000	0.00000000000000	0.00000000000000	0.00000000000000	0.00000000000000	0.00000000000000	0.00000000000000	22.87810000000000	621.21199999999999	33.82090000000000	-0.11240500000000	0.00000000000000	-0.13632200000000	0.00000000000000	0.00000000000000	0.00000000000000	0.00000000000000	2.68024000000000	0.00000000000000	-0.22114000000000	-0.14265000000000	0.00000000000000	0.00000000000000	-0.35000000000000	0.00000000000000	0.13249000000000	0.01250200000000	0.00000000000000	0.00000000000000	-0.35000000000000	0.00000000000000	
2.57554000000000	0.00000000000000	0.00000000000000	0.00000000000000	0.00000000000000	0.00000000000000	0.00000000000000	24.88870000000000	626.97500000000002	34.16000000000000	-0.11809100000000	0.00000000000000	-0.13673500000000	0.00000000000000	0.00000000000000	0.00000000000000	0.00000000000000	2.52930000000000	0.00000000000000	-0.09504800000000	-0.06170200000000	0.00000000000000	0.00000000000000	-0.35000000000000	0.00000000000000	-0.02523700000000	-0.00207240000000	0.00000000000000	0.00000000000000	-0.35000000000000	0.00000000000000	
2.58054000000000	0.00000000000000	0.00000000000000	0.00000000000000	0.00000000000000	0.00000000000000	0.00000000000000	26.96620000000000	633.46500000000003	34.70020000000000	-0.12351900000000	0.00000000000000	-0.13709500000000	0.00000000000000	0.00000000000000	0.00000000000000	0.00000000000000	2.38033000000000	0.00000000000000	0.06672000000000	0.04355200000000	0.00000000000000	0.00000000000000	-0.35000000000000	0.00000000000000	-0.21793000000000	-0.01521900000000	0.00000000000000	0.00000000000000	-0.35000000000000	0.00000000000000	
2.58554000000000	0.00000000000000	0.00000000000000	0.00000000000000	0.00000000000000	0.00000000000000	0.00000000000000	29.13590000000000	640.76999999999998	35.44680000000000	-0.12867400000000	0.00000000000000	-0.13739000000000	0.00000000000000	0.00000000000000	0.00000000000000	0.00000000000000	2.23428000000000	0.00000000000000	0.25201000000000	0.16529000000000	0.00000000000000	0.00000000000000	-0.35000000000000	0.00000000000000	-0.43224000000000	-0.02485600000000	0.00000000000000	0.00000000000000	-0.35000000000000	0.00000000000000	
